<?xml version="1.0" encoding="UTF-8" standalone="no"?>
<!-- Created with Inkscape (http://www.inkscape.org/) -->

<svg
   xmlns:dc="http://purl.org/dc/elements/1.1/"
   xmlns:cc="http://creativecommons.org/ns#"
   xmlns:rdf="http://www.w3.org/1999/02/22-rdf-syntax-ns#"
   xmlns:svg="http://www.w3.org/2000/svg"
   xmlns="http://www.w3.org/2000/svg"
   xmlns:sodipodi="http://sodipodi.sourceforge.net/DTD/sodipodi-0.dtd"
   xmlns:inkscape="http://www.inkscape.org/namespaces/inkscape"
   width="5800"
   height="5800"
   viewBox="0 0 5800.0004 5800.0005"
   id="svg2"
   version="1.1"
   inkscape:version="0.91 r13725"
   sodipodi:docname="tympan-logo-no-square.svg"
   inkscape:export-filename="/home/brennen/code/tympan/jekyll/img/tympan-logo.png"
   inkscape:export-xdpi="3.8599999"
   inkscape:export-ydpi="3.8599999">
  <defs
     id="defs4" />
  <sodipodi:namedview
     id="base"
     pagecolor="#ffffff"
     bordercolor="#666666"
     borderopacity="1.0"
     inkscape:pageopacity="1"
     inkscape:pageshadow="2"
     inkscape:zoom="0.076396809"
     inkscape:cx="-857.43079"
     inkscape:cy="1679.9766"
     inkscape:document-units="px"
     inkscape:current-layer="layer1"
     showgrid="false"
     width="1200mm"
     units="px"
     showguides="true"
     inkscape:window-width="1918"
     inkscape:window-height="1058"
     inkscape:window-x="1920"
     inkscape:window-y="20"
     inkscape:window-maximized="0">
    <inkscape:grid
       type="xygrid"
       id="grid3344" />
  </sodipodi:namedview>
  <metadata
     id="metadata7">
    <rdf:RDF>
      <cc:Work
         rdf:about="">
        <dc:format>image/svg+xml</dc:format>
        <dc:type
           rdf:resource="http://purl.org/dc/dcmitype/StillImage" />
        <dc:title></dc:title>
      </cc:Work>
    </rdf:RDF>
  </metadata>
  <g
     inkscape:label="Layer 1"
     inkscape:groupmode="layer"
     id="layer1"
     transform="translate(0,4747.6383)">
    <path
       style="fill:#000000;fill-opacity:1;fill-rule:evenodd;stroke:#000000;stroke-width:1;stroke-linecap:round;stroke-linejoin:miter;stroke-miterlimit:3.79999995;stroke-dasharray:none;stroke-opacity:1"
       d="M 5121.6684,-3957.2222 C 2206.4146,-1702.9066 5140.1203,3.9308359 5140.1203,3.9308359"
       id="path3360"
       inkscape:connector-curvature="0"
       sodipodi:nodetypes="cc" />
    <path
       style="fill:#0b0065;fill-opacity:1;stroke:none;stroke-width:0.86958784;stroke-linecap:round;stroke-linejoin:round;stroke-miterlimit:3.79999995;stroke-dasharray:none;stroke-opacity:1"
       id="path4262"
       d="m 320.87685,-1901.6947 c 14.1904,-61.2606 48.2287,-118.448 81.1445,-174.9778 58.0416,-96.4723 128.8212,-188.0331 191.4757,-282.751 36.5041,-53.259 65.5342,-108.9593 94.2565,-164.7536 71.5061,-47.4235 136.1057,-101.5641 214.51828,-142.2705 9.4777,-4.9204 10.6861,15.6379 13.0151,24.1506 2.7663,10.1117 1.4529,20.6227 2.0558,30.9385 3.0023,51.3791 8.0057,102.3695 13.7521,153.6285 21.2559,171.2252 55.0784,341.3368 83.65147,511.8989 5.0401,31.0322 9.6819,62.1029 15.1202,93.0966 9.0313,51.4729 23.0162,119.5913 33.0888,171.3958 12.9032,66.3629 24.7184,132.7891 38.7444,199.0224 10.0404,37.4787 16.4342,75.6666 29.7815,112.6278 2.0075,5.5591 3.9912,11.19 7.2819,16.388 0.54,0.8528 4.5489,0.1848 3.5991,0.7998 -68.2088,44.1746 -137.772,87.1392 -206.65797,130.7089 3.717,-10.2136 8.477,-20.2423 11.151,-30.6406 7.8045,-30.3495 17.18,-98.2409 21.1912,-124.6595 16.1629,-106.4522 29.5659,-212.9745 42.36487,-319.6887 40.3947,-261.7466 85.6915,-523.0676 120.9578,-785.2618 7.7972,-57.9701 14.467,-116.0237 21.7004,-174.0355 32.062,-294.3979 45.7564,-589.6897 66.7356,-884.6021 2.2101,-31.7648 4.3796,-63.5313 6.6305,-95.2944 1.8979,-26.7822 6.5716,-95.939 10.1089,-127.2557 1.0597,-9.3827 -4.2464,-21.2868 4.4163,-28.0523 220.1708,-171.9498 188.5552,-204.3157 228.3808,-93.5777 33.2406,260.4522 37.9845,522.4444 49.8424,783.8063 16.4109,390.3931 37.6229,780.6319 50.8232,1171.1017 11.4079,353.0119 10.8163,706.1807 12.3751,1059.27929 0.5498,109.61022 -2.8599,219.20292 -2.6053,328.81172 0,0.7246 0.1484,88.1296 3.1411,103.2595 0.3761,1.902 3.9202,2.4505 5.8804,3.6757 -71.7227,34.444 -131.6759,91.4179 -215.1683,103.3319 -31.8373,4.5431 3.8856,-48.9099 5.2995,-73.3846 2.0377,-35.2704 3.5773,-70.5566 5.055,-105.8429 6.9295,-165.4754 10.6104,-330.99512 14.4135,-496.52381 5.114,-490.7213 28.3462,-981.1337 55.6836,-1471.3851 15.3458,-299.5439 29.7324,-599.1515 55.1611,-898.33 12.8055,-150.6602 19.578,-206.6432 35.33,-353.4872 11.94,-122.4529 27.8316,-244.6533 41.2039,-367.0151 2.6303,-24.0683 5.057,-48.1495 7.3917,-72.2352 4.3364,-44.7342 6.0604,-29.1088 2.1279,-53.0005 73.2784,-36.1964 134.3904,-94.232 219.8351,-108.5893 30.8242,-5.1794 0.01,47.7512 0.1418,71.6266 0.2037,35.5968 0.553,71.1929 0.8794,106.7892 1.1263,122.811 0.4972,176.1235 7.8443,303.0834 3.5964,62.1474 9.2341,124.2176 13.8511,186.3265 6.9523,68.7021 13.6351,137.4201 20.857,206.1063 8.3184,79.1158 42.0056,382.1577 49.3608,457.197 8.0899,82.5343 14.7182,165.1468 22.1313,247.7174 32.524,362.2708 15.3023,157.7339 44.6454,526.5498 38.6921,545.7199 51.3603,1092.2073 61.4567,1638.57321 1.4745,81.0685 2.9652,162.1368 4.4238,243.2055 1.3525,75.17045 2.0032,150.34975 4.0096,225.51165 5.7352,214.861352 18.3594,429.5109 35.4713,644.00745 2.5872,24.13153 7.82,99.9686 19.2069,131.60579 1.1748,3.26409 13.1838,4.96438 9.6581,7.04675 -65.6615,38.78113 -123.8522,93.60934 -204.8869,108.25961 -31.6114,5.71501 8.4338,-48.75343 11.1884,-73.24096 4.2329,-37.62866 6.5122,-75.36833 9.7683,-113.05249 13.8984,-270.14112 34.5798,-540.076374 46.9703,-810.26395 6.0015,-130.86975 14.4483,-408.84385 18.5615,-537.08155 11.0379,-564.19201 29.2172,-1128.27861 52.8091,-1692.24501 12.5933,-387.3441 45.1831,-774.1807 80.5348,-1160.6675 3.5825,-40.8348 7.1524,-81.6702 10.7474,-122.5044 3.2569,-36.9963 10.6366,-117.9847 13.7763,-160.2651 0.7595,-10.2266 -7.8061,-23.4442 1.756,-30.6993 233.4421,-177.1218 216.6258,-192.0224 208.536,-77.0432 -36.5169,321.7456 -42.1547,645.0031 -49.1186,967.7202 -10.6806,445.232 -2.3071,890.4984 8.1073,1335.6756 4.3313,167.7646 9.311,335.5225 15.4184,503.256 3.5261,96.8401 7.2435,193.4255 16.3455,290.05239 3.0949,11.1484 4.3367,22.686 9.285,33.4453 1.5021,3.266 5.109,-12.291 1.349,-10.323 -66.4625,34.7864 -115.6389,93.68182 -193.2497,110.76392 -30.7829,6.7754 11.3967,-47.7237 15.8868,-71.72662 13.5711,-72.5461 24.2076,-157.04479 34.1535,-229.01019 46.6985,-348.9577 61.6292,-699.7161 88.0946,-1049.746 13.0253,-157.1686 26.4054,-314.3276 35.2855,-471.6698 4.7371,-83.936 7.6379,-167.9222 12.3186,-251.8605 8.1402,-101.2689 16.0526,-104.4993 229.5514,-175.2825 19.5903,-6.4949 11.3906,31.1966 15.973,46.9951 17.6717,60.9255 27.1998,111.4194 40.7639,174.117 40.3376,197.6012 63.8737,396.8304 99.1478,594.9367 21.3926,120.1446 40.6423,210.7879 65.0159,330.2749 28.0894,129.2546 49.3659,259.4065 80.6053,388.2788 6.2028,25.5888 12.5899,51.1852 20.9446,76.4217 15.3841,46.4703 6.652,50.0733 25.9736,32.2922 -63.4489,36.1724 -113.8524,92.2477 -190.3467,108.517 -30.9748,6.5879 12.3324,-47.7648 17.5706,-71.7698 7.4046,-33.9336 14.0117,-67.9665 20.3528,-102.0229 25.3918,-136.3726 46.5546,-273.2093 70.7411,-409.7087 44.5485,-209.8175 81.9089,-420.5456 129.3207,-630.014 31.1251,-80.9085 25.0693,-79.7863 231.1771,-145.8958 20.6855,-6.635 11.7959,32.8318 15.8011,49.5498 5.5875,23.3232 9.0336,46.9138 12.9429,70.4315 9.3568,56.2876 20.6604,139.2096 28.4237,194.2338 23.8024,185.7398 46.2266,371.8904 85.8048,556.1788 3.2671,10.962 4.9874,22.2549 9.8011,32.8859 0.86,1.8992 4.4072,2.2392 6.6108,3.3588 -68.7314,39.4947 -128.2008,90.504 -206.1941,118.484 -20.0104,7.1786 9.6148,-32.7138 13.1835,-49.2419 13.4912,-62.4822 15.926,-95.205 24.0013,-160.1082 13.1116,-139.1691 31.4094,-278.5887 31.4094,-418.2545 -25.8864,-73.3897 -13.147,-29.242 217.0045,-135.4407 9.8252,-4.5336 2.8851,17.2738 3.8802,25.9444 4.0461,35.2582 5.7898,70.7431 8.3441,106.0751 4.9444,27.8447 -0.9089,58.8422 13.8098,85.4685 0.5857,1.0596 0.1743,-4.1002 -0.9899,-3.3627 -70.4952,44.6578 -139.2436,90.8689 -208.8654,136.3033 21.046,-15.9693 28.9029,-39.1464 40.2805,-59.5156 16.6477,-11.7605 131.0798,-169.8363 238.9849,-158.7709 8.1877,0.8398 16.1212,2.7476 24.1991,4.0616 23.8236,2.5071 47.2146,6.2647 70.8318,9.6717 18.3743,5.3219 37.43,8.184 56.9595,9.4195 16.541,1.2145 32.2776,5.2966 48.9454,6.608 10.9237,0.181 21.076,3.6378 31.66,5.4776 0,0 -189.8221,160.0374 -189.8221,160.0374 l 0,0 c -9.7268,-1.9349 -19.3699,-3.6121 -29.4392,-4.1824 -16.1311,-2.2044 -31.8837,-5.8044 -48.319,-6.59 -19.8141,-2.4958 -38.8739,-6.8859 -58.233,-10.827 -23.1214,-3.8865 -46.4454,-6.3618 -69.8476,-9.0802 -11.2812,-0.8421 -24.076,-1.3649 -33.0898,5.0735 -2.1049,1.5036 -7.3551,6.7501 -5.3198,5.1927 62.8907,-48.124 125.2862,-96.6167 187.9292,-144.925 -2.977,2.1327 -6.5426,3.8773 -8.9313,6.3978 -5.3589,5.6551 -8.4878,15.1162 -11.5271,21.3363 -5.4797,11.2151 -13.7384,21.6445 -15.9241,33.6434 -73.1635,48.3183 -143.173,99.5114 -219.4904,144.9551 -6.8155,4.0582 -11.0791,-10.8056 -12.9325,-21.0642 -4.8918,-27.0735 -4.248,-54.4721 -5.5914,-81.7094 -2.2656,-34.0322 -4.4433,-67.9896 -11.0993,-101.7368 -1.3377,-6.7827 -11.146,-15.1759 -5.0047,-20.2222 65.0512,-53.4518 140.0289,-99.4781 210.631,-148.7386 3.2402,-2.2608 -5.6442,5.1229 -8.4663,7.6843 -14.5938,51.1753 -21.5607,103.0731 -27.7465,155.2093 -10.8695,91.6112 -17.4968,183.4935 -24.8659,275.2886 -3.9409,66.4953 -5.1536,88.9529 -9.3141,152.3502 -0.9686,14.7612 9.2801,32.8119 -3.0524,44.2784 -63.5434,59.0814 -140.8726,109.0405 -216.2054,159.5829 -17.0596,11.4457 37.0807,-116.4644 -4.2135,-51.6369 -14.71,-189.2433 -41.7937,-377.8075 -70.0646,-566.1247 -16.3332,-83.3009 -30.3021,-167.4346 -59.1642,-248.9736 -4.2655,-12.0507 -25.2319,-25.4176 -15.5638,-35.526 54.1059,-56.5703 127.8587,-100.756 193.1334,-150.1309 8.5675,-6.4806 -15.2603,14.2376 -22.8906,21.3564 -6.8671,18.0895 -14.4631,36.0299 -20.6014,54.2686 -34.0735,101.2427 -58.3807,204.5291 -82.4306,307.3199 -10.9474,46.7893 -21.9092,93.5809 -31.8655,140.4966 -10.3948,48.9834 -19.4561,98.1232 -29.1841,147.1847 -7.667,48.3521 -16.0278,96.6441 -23.0007,145.0561 -9.224,64.0436 -23.7481,187.1608 -31.0743,253.8921 -3.4902,31.7908 -7.1092,63.5779 -9.7976,95.4132 -1.8554,21.9719 12.3337,47.6745 -3.8323,65.986 -58.4801,66.2413 -140.8519,118.4487 -211.2778,177.6731 -28.609,-28.2654 -14.6649,-8.9265 -21.8124,-64.1585 -3.6021,-27.8344 -6.9778,-55.686 -10.7814,-83.5052 -18.2721,-133.6368 -37.1359,-267.2776 -62.0345,-400.3186 -21.2727,-110.3779 -43.2615,-220.6767 -64.3423,-331.0755 -36.8914,-193.1971 -66.6361,-387.5098 -121.5722,-578.4394 -24.9682,-77.8316 -25.9851,-90.4848 -57.804,-159.6695 -5.497,-11.9521 -28.7046,-24.994 -18.8075,-35.1981 55.4616,-57.1818 132.4863,-100.3905 198.8868,-150.4666 17.7381,-13.3771 -117.6616,86.4762 -29.341,52.3195 -17.4872,89.3682 -29.2768,178.8037 -40.0684,268.7923 -19.2404,160.4405 -36.1137,321.0366 -51.3643,481.7212 -4.888,61.6468 -10.2989,123.2713 -14.6641,184.9406 -20.0874,283.7861 -28.2483,568.0005 -52.0841,851.6466 -4.7887,69.0513 -10.5604,147.1104 -14.2004,216.90699 -1.1317,21.7013 13.157,46.966 -2.5993,65.1247 -57.5215,66.2917 -133.5815,122.63102 -208.4706,178.12702 -17.9478,13.3002 -24.592,-104.75282 -11.2258,-56.369 12.5933,-274.50781 14.8181,-549.19871 15.2029,-823.85411 -1.0267,-445.7672 -8.1982,-891.512 -6.1202,-1337.2851 -0.3664,-194.7671 -0.9628,-389.5301 -2.4725,-584.2943 -0.518,-66.8332 -1.4486,-193.6312 -3.3355,-264.9894 -0.7158,-27.0697 -2.168,-54.1257 -3.2519,-81.1885 -4.4821,-103.9013 -15.4709,-59.8774 203.0929,-183.4109 13.7251,-7.7577 -11.1635,24.5647 -14.78,37.2298 -28.1941,98.7374 -35.603,200.3707 -53.3252,300.2162 -23.2369,170.3635 -43.2218,340.7779 -61.5272,511.4886 -24.0505,224.2883 -47.2735,448.6806 -58.691,673.5909 -17.3489,276.6151 -32.709,553.2765 -42.058,830.1271 -6.8184,201.9138 -9.2243,380.9465 -12.0134,582.8387 -1.2982,93.9763 -2.2877,187.95499 -3.4316,281.93259 -3.6457,258.58122 -9.3902,517.12352 -12.1773,775.710966 -1.7834,165.474134 -3.5269,232.267994 -0.4012,392.327054 0.9265,47.44769 3.0605,94.87748 4.5908,142.31618 1.4198,34.84246 2.5542,69.69225 4.2596,104.52737 1.0685,21.82617 20.3513,47.41443 4.0618,65.45136 -205.7836,227.85891 -214.7075,239.13364 -213.5348,147.37742 0.7964,-62.31013 1.5217,-77.19375 3.4463,-147.40638 2.3676,-222.79437 0.4301,-445.5748 1.4482,-668.371094 0.3493,-76.463706 1.6081,-152.923906 2.0543,-229.387306 0.4796,-82.15765 0.4819,-164.31645 0.7229,-246.47475 -3.2107,-546.80661 -11.0324,-1093.93331 -58.1987,-1639.77221 -23.397,-255.6525 -47.9544,-511.3012 -77.8748,-766.5769 -16.4564,-140.4033 -40.0704,-309.7397 -59.509,-450.4846 -9.2866,-67.2408 -18.7233,-134.4697 -28.0849,-201.7045 -7.2706,-60.5128 -15.0449,-120.9924 -21.8119,-181.5388 -5.917,-52.9416 -10.8259,-105.9448 -16.239,-158.9173 -4.0555,-43.5909 -7.3468,-87.2264 -12.1661,-130.7728 -3.6345,-32.8399 -8.0843,-65.6319 -13.1926,-98.3593 -3.1714,-20.3175 -26.6279,-43.7075 -11.6415,-60.7413 54.7467,-62.2258 137.7269,-107.2269 206.5905,-160.8403 -27.6238,25.1784 -16.3451,10.7738 -29.1254,62.3726 -6.4227,25.9314 -11.8005,52.0082 -17.0073,78.0949 -25.3045,126.7758 -45.6317,254.1293 -64.7406,381.5064 -22.9486,155.6377 -30.9944,201.3872 -48.9566,361.5678 -33.9041,302.3465 -51.4008,605.555 -71.7826,908.5367 -12.485,200.1105 -20.6043,312.1595 -28.5594,512.8909 -12.4608,314.4197 -13.3543,629.0541 -5.1607,943.5432 3.9413,158.98819 7.3137,318.00081 15.8131,476.89921 1.7538,32.7891 3.5932,65.5805 6.3264,98.3312 1.7999,21.5678 23.1988,46.6551 7.2706,64.5986 -56.7891,63.9745 -141.5125,110.8918 -212.2687,166.3376 22.7062,-18.1162 11.5363,-6.1017 17.6226,-51.4687 3.1753,-23.6687 5.5313,-47.399 7.7032,-71.1324 10.3666,-113.2855 15.4978,-226.8052 21.2611,-340.2596 9.8045,-357.37001 22.0507,-714.90131 8.9147,-1072.32581 -6.5454,-180.3897 -7.5265,-228.6039 -17.1062,-408.5144 -13.3886,-251.4455 -32.8485,-502.688 -46.2008,-754.1366 -3.8317,-55.8219 -7.7457,-111.6406 -11.4953,-167.4657 -11.6604,-173.6049 -21.3523,-348.0028 -61.6054,-519.5196 -5.0351,-21.4544 -12.0001,-42.6242 -18.0002,-63.9363 -32.8333,-90.507 -24.7445,-38.285 183.6667,-173.0474 11.2361,-7.2655 -11.7209,20.6444 -15.1615,31.5163 -5.935,18.754 -9.261,37.9367 -12.8593,57.0272 -11.4976,60.9976 -17.6227,116.3517 -25.6351,178.1134 -15.743,132.6074 -29.7577,265.2896 -41.6941,398.1295 -3.0966,34.463 -24.7029,297.1868 -27.6254,328.1123 -5.4164,57.3125 -11.9519,114.5614 -17.9278,171.8422 -38.3766,315.9548 -83.7486,631.3748 -124.1769,947.1737 -11.781,151.5832 -26.3261,303.0993 -31.6691,454.9078 -72.1862,50.6955 -140.9825,104.2992 -216.55877,152.0868 -3.9853,2.5199 -6.332,-6.4122 -7.9061,-10.1558 -2.6836,-6.3826 -3.2883,-13.1639 -4.6797,-19.7782 -8.401,-39.9345 -13.0998,-80.2167 -20.1763,-120.2862 -11.0597,-68.111 -19.9036,-136.381 -30.60318,-204.5218 -14.6855,-93.5248 -13.5714,-77.739 -29.9096,-173.8548 -5.2647,-30.972 -10.0973,-61.9852 -15.1458,-92.9778 -28.4814,-168.5879 -63.4828,-336.4845 -94.9979,-504.759 -10.4951,-56.1378 -10.7134,-55.5596 -19.4012,-108.035 -2.1326,-12.881 -4.132,-25.7744 -6.1605,-38.665 -1.3518,-8.5903 -4.0264,-17.1266 -3.9808,-25.7774 0.012,-2.2328 2.7654,-3.9458 4.1482,-5.9188 67.3701,-48.4468 134.7405,-96.8935 202.11078,-145.3403 -3.8271,2.7971 -8.5576,5.0283 -11.4814,8.3914 -7.4601,8.5812 -23.84738,40.0725 -27.64088,46.6567 -22.5051,39.063 -47.0107,77.4516 -71.7692,115.7177 -62.0643,94.3321 -133.4652,185.0048 -190.8663,281.1133 -29.9329,52.0809 -61.5671,104.9281 -71.9856,161.6814 0,0 -218.1222,137.3517 -218.1222,137.3517 z"
       inkscape:connector-curvature="0" />
  </g>
</svg>
